<svg version="1.1" baseProfile="basic" id="레이어_1" xmlns="http://www.w3.org/2000/svg" xmlns:xlink="http://www.w3.org/1999/xlink" x="0px" y="0px" viewBox="0 0 30 30" xml:space="preserve" width="30"  height="30" >
                                <path d="M13.5,24.1c-5.8,0-10.6-4.8-10.6-10.6S7.7,2.9,13.5,2.9s10.6,4.8,10.6,10.6S19.3,24.1,13.5,24.1z M13.5,4.1
                                c-5.2,0-9.4,4.2-9.4,9.4c0,5.2,4.2,9.4,9.4,9.4c5.2,0,9.4-4.2,9.4-9.4C22.9,8.3,18.7,4.1,13.5,4.1z"></path>
                                <rect x="21.2" y="20.7" transform="matrix(0.787 -0.617 0.617 0.787 -10.2878 18.6108)" width="1.2" height="7.1"></rect>
                            </svg>