<svg xmlns="http://www.w3.org/2000/svg" xmlns:xlink="http://www.w3.org/1999/xlink" version="1.2" baseProfile="tiny" id="레이어_1" x="0px" y="0px" viewBox="0 0 30 30" xml:space="preserve">
                                    <path d="M20.7,8.9c0.1-1.3,0.1-4.5-1.7-6.5c-1-1.1-2.3-1.6-3.9-1.6c-1.7,0-3,0.6-3.9,1.6c-1.7,2-1.8,5.2-1.7,6.5H3.6v19.8h22.9V8.9                                     H20.7z M12,3.3c0.7-0.8,1.7-1.2,3-1.2c1.3,0,2.3,0.4,3,1.2c1.5,1.7,1.5,4.6,1.4,5.7h-8.9C10.6,7.9,10.5,5,12,3.3z M25.2,27.6H4.8                                     V10.1h20.5V27.6z"/>
                                </svg>